<svg height="512pt" viewBox="-26 0 512 512" width="512pt" xmlns="http://www.w3.org/2000/svg"><path d="m360.003906 302c0 5.523438-4.476562 10-10 10-5.523437 0-10-4.476562-10-10s4.476563-10 10-10c5.523438 0 10 4.476562 10 10zm0 0"/><path d="m300.003906 442c0 5.523438-4.476562 10-10 10-5.523437 0-10-4.476562-10-10s4.476563-10 10-10c5.523438 0 10 4.476562 10 10zm0 0"/><path d="m240.003906 302c0 5.523438-4.476562 10-10 10-5.523437 0-10-4.476562-10-10s4.476563-10 10-10c5.523438 0 10 4.476562 10 10zm0 0"/><path d="m180.003906 442c0 5.523438-4.476562 10-10 10-5.523437 0-10-4.476562-10-10s4.476563-10 10-10c5.523438 0 10 4.476562 10 10zm0 0"/><path d="m120.003906 302c0 5.523438-4.476562 10-10 10-5.523437 0-10-4.476562-10-10s4.476563-10 10-10c5.523438 0 10 4.476562 10 10zm0 0"/><path d="m300.003906 292c22.054688 0 40-17.945312 40-40s-17.945312-40-40-40c-22.058594 0-40 17.945312-40 40s17.941406 40 40 40zm0-60c11.027344 0 20 8.972656 20 20s-8.972656 20-20 20-20-8.972656-20-20 8.972656-20 20-20zm0 0"/><path d="m300.003906 332c-22.058594 0-40 17.945312-40 40s17.941406 40 40 40c22.054688 0 40-17.945312 40-40s-17.945312-40-40-40zm0 60c-11.027344 0-20-8.972656-20-20s8.972656-20 20-20 20 8.972656 20 20-8.972656 20-20 20zm0 0"/><path d="m160.003906 212c-22.058594 0-40 17.945312-40 40s17.941406 40 40 40c22.054688 0 40-17.945312 40-40s-17.945312-40-40-40zm0 60c-11.027344 0-20-8.972656-20-20s8.972656-20 20-20 20 8.972656 20 20-8.972656 20-20 20zm0 0"/><path d="m160.003906 332c-22.058594 0-40 17.945312-40 40s17.941406 40 40 40c22.054688 0 40-17.945312 40-40s-17.945312-40-40-40zm0 60c-11.027344 0-20-8.972656-20-20s8.972656-20 20-20 20 8.972656 20 20-8.972656 20-20 20zm0 0"/><path d="m422.796875 312 17.71875 53.160156c1.746094 5.242188 7.410156 8.074219 12.648437 6.328125 5.242188-1.75 8.070313-7.410156 6.324219-12.648437l-20-60c-1.359375-4.085938-5.179687-6.839844-9.484375-6.839844h-30.855468c-2.300782-27.09375-9.261719-53.304688-20.492188-77.085938l36.894531-24.59375c2.78125-1.855468 4.453125-4.976562 4.453125-8.320312v-60c0-5.523438-4.476562-10-10-10-5.523437 0-10 4.476562-10 10v54.648438l-30.78125 20.515624c-17.976562-30.125-43.441406-55.136718-74.609375-70.222656 3.539063-8.484375 5.390625-17.628906 5.390625-26.941406 0-17.808594-6.628906-34.5625-18.472656-47.386719l35.542969-35.542969c3.90625-3.902343 3.90625-10.234374 0-14.140624-3.90625-3.90625-10.238281-3.90625-14.144531 0l-36.984376 36.984374c-10.816406-6.507812-23.082031-9.914062-35.941406-9.914062-12.867187 0-25.136718 3.40625-35.945312 9.914062l-36.984375-36.984374c-3.90625-3.90625-10.238281-3.90625-14.144531 0-3.902344 3.902343-3.902344 10.234374 0 14.140624l35.5625 35.5625c-17.855469 19.433594-23.75 47.308594-13.359376 74.433594-28.65625 13.933594-54.933593 37.554688-74.347656 70.097656l-30.78125-20.515624v-54.648438c0-5.523438-4.476562-10-10-10-5.523437 0-10 4.476562-10 10v60c0 3.34375 1.671875 6.464844 4.453125 8.320312l36.894531 24.59375c-11.230468 23.78125-18.195312 49.992188-20.492187 77.085938h-30.855469c-4.304687 0-8.125 2.753906-9.488281 6.839844l-20 60c-1.746094 5.238281 1.085937 10.898437 6.324219 12.648437 5.242187 1.746094 10.902344-1.085937 12.648437-6.328125l17.722657-53.160156h22.792968c0 33.96875 7.308594 67.191406 21.160156 96.683594l-36.707031 24.464844c-2.78125 1.855468-4.453125 4.976562-4.453125 8.320312v60c0 5.523438 4.476563 10 10 10 5.523438 0 10-4.476562 10-10v-54.648438l30.5625-20.367187c30.246094 50.921875 80.835938 85.546875 139.4375 85.546875 58.691406 0 109.238282-34.707031 139.4375-85.546875l30.5625 20.367187v54.648438c0 5.523438 4.476563 10 10 10 5.523438 0 10-4.476562 10-10v-60c0-3.34375-1.671875-6.464844-4.453125-8.320312l-36.710937-24.464844c13.855468-29.492188 21.164062-62.714844 21.164062-96.683594zm-286.988281-140c25.46875-24.683594 58.019531-40 94.195312-40 36.246094 0 68.78125 15.371094 94.195313 40zm144.195312-72c0 6.726562-1.347656 13.324219-3.929687 19.433594-14.933594-4.929688-30.390625-7.433594-46.070313-7.433594-15.789062 0-31.335937 2.535156-46.347656 7.523438-13.535156-36.023438 12.597656-69.523438 46.347656-69.523438 27.40625 0 50 22.140625 50 50zm-40 391.601562v-149.601562c0-5.523438-4.476562-10-10-10-5.523437 0-10 4.476562-10 10v149.601562c-82.3125-6.480468-140-89.28125-140-179.601562 0-43.648438 13.113282-86.304688 38.246094-120h101.753906v70c0 5.523438 4.476563 10 10 10 5.523438 0 10-4.476562 10-10v-70h101.75c25.5 34.183594 38.25 77.011719 38.25 120 0 89.96875-57.332031 173.09375-140 179.601562zm0 0"/></svg>