<?xml version="1.0" encoding="UTF-8" standalone="no"?>
<!-- Created with Inkscape (http://www.inkscape.org/) -->

<svg
   xmlns:dc="http://purl.org/dc/elements/1.1/"
   xmlns:cc="http://creativecommons.org/ns#"
   xmlns:rdf="http://www.w3.org/1999/02/22-rdf-syntax-ns#"
   xmlns:svg="http://www.w3.org/2000/svg"
   xmlns="http://www.w3.org/2000/svg"
   xmlns:sodipodi="http://sodipodi.sourceforge.net/DTD/sodipodi-0.dtd"
   xmlns:inkscape="http://www.inkscape.org/namespaces/inkscape"
   width="210mm"
   height="297mm"
   viewBox="0 0 210 297"
   version="1.1"
   id="svg8"
   inkscape:version="0.92.2 5c3e80d, 2017-08-06"
   sodipodi:docname="cga.svg">
  <defs
     id="defs2" />
  <sodipodi:namedview
     id="base"
     pagecolor="#ffffff"
     bordercolor="#666666"
     borderopacity="1.0"
     inkscape:pageopacity="0.0"
     inkscape:pageshadow="2"
     inkscape:zoom="0.24748737"
     inkscape:cx="1275.2304"
     inkscape:cy="239.55177"
     inkscape:document-units="mm"
     inkscape:current-layer="layer1"
     showgrid="false"
     inkscape:window-width="1280"
     inkscape:window-height="755"
     inkscape:window-x="0"
     inkscape:window-y="1"
     inkscape:window-maximized="1" />
  <metadata
     id="metadata5">
    <rdf:RDF>
      <cc:Work
         rdf:about="">
        <dc:format>image/svg+xml</dc:format>
        <dc:type
           rdf:resource="http://purl.org/dc/dcmitype/StillImage" />
        <dc:title></dc:title>
      </cc:Work>
    </rdf:RDF>
  </metadata>
  <g
     inkscape:label="Capa 1"
     inkscape:groupmode="layer"
     id="layer1">
    <g
       id="g3812"
       transform="matrix(6.1641598,0,0,6.1641598,-438.24772,-681.57477)">
      <path
         style="fill:#a4b4c6;stroke-width:0.26458332"
         d="m 76.950729,157.52151 c -0.0769,-0.20039 -0.102926,-0.94453 -0.05784,-1.65364 l 0.08197,-1.2893 2.976562,-0.0748 2.976563,-0.0748 v -1.15366 c 0,-1.13614 0.299603,-1.52312 0.992187,-1.28153 0.553806,0.19318 0.399201,1.42582 -0.198437,1.5821 -0.291042,0.0761 -0.529167,0.30309 -0.529167,0.5044 0,0.30322 1.316447,0.36602 7.672916,0.36602 H 98.5384 v 1.71979 1.71979 H 87.814471 c -8.862792,0 -10.748193,-0.0632 -10.863742,-0.36435 z m 6.984876,-4.68258 c -0.05214,-0.15643 -0.207918,-0.28443 -0.346163,-0.28443 -0.138245,0 -0.294018,0.128 -0.346163,0.28443 -0.05214,0.15644 0.103628,0.28443 0.346163,0.28443 0.242535,0 0.398308,-0.12799 0.346163,-0.28443 z m -6.677264,0.39782 c -0.228676,-0.22867 -0.415774,-0.57736 -0.415774,-0.77485 0,-0.87849 1.573457,-1.59092 1.997682,-0.90451 0.111406,0.18026 -0.04237,0.25368 -0.415647,0.19844 -0.775174,-0.11471 -1.287546,0.63366 -0.819743,1.19733 0.184101,0.22183 0.504619,0.33814 0.712261,0.25846 0.207642,-0.0797 0.37753,-0.0131 0.37753,0.14801 0,0.43609 -0.959428,0.354 -1.436309,-0.12288 z m 1.700893,0.032 c 0,-0.21105 0.208359,-0.50509 0.46302,-0.65341 0.425763,-0.24799 0.420441,-0.27066 -0.06614,-0.28179 -0.429,-0.01 -0.455721,-0.0585 -0.141166,-0.25749 0.524318,-0.33161 1.067207,0.15031 1.067207,0.94735 0,0.49462 -0.141376,0.62907 -0.661458,0.62907 -0.401502,0 -0.661458,-0.15081 -0.661458,-0.38373 z m 1.627143,-0.31385 c -0.03446,-0.72141 0.05856,-0.84428 0.711778,-0.94015 1.105139,-0.1622 1.365245,0.006 1.365245,0.88164 0,0.89659 -0.511846,0.78741 -0.559858,-0.11943 -0.02839,-0.53611 -0.04026,-0.5399 -0.157974,-0.0505 -0.214358,0.89119 -0.605084,1.09621 -0.605084,0.3175 0,-0.93434 -0.462229,-0.92423 -0.604242,0.0132 -0.106221,0.70119 -0.111661,0.69748 -0.149865,-0.10226 z m 4.105496,0.52119 c -0.276981,-0.27698 -0.206098,-1.41111 0.08819,-1.41111 0.145521,0 0.264583,0.35718 0.264583,0.79375 0,0.82202 -0.05386,0.91627 -0.352777,0.61736 z m 0.79375,0 c -0.280975,-0.28098 -0.20402,-2.20486 0.08819,-2.20486 0.145521,0 0.264583,0.53578 0.264583,1.19062 0,1.21137 -0.04017,1.32685 -0.352777,1.01424 z m 0.809796,-0.022 c -0.237817,-0.45651 -0.187313,-2.18282 0.06386,-2.18282 0.150079,0 0.272871,0.53578 0.272871,1.19062 0,1.12822 -0.104876,1.43724 -0.336731,0.99219 z m 0.777703,0.022 c -0.276863,-0.27687 -0.206702,-1.01038 0.128728,-1.34582 0.415279,-0.41527 1.282383,0.0644 1.282383,0.70946 0,0.62553 -0.979992,1.06748 -1.411111,0.63636 z m 0.881945,-0.76527 c 0,-0.20969 -0.119063,-0.38126 -0.264584,-0.38126 -0.14552,0 -0.264583,0.24515 -0.264583,0.54478 0,0.29963 0.119063,0.4712 0.264583,0.38126 0.145521,-0.0899 0.264584,-0.33509 0.264584,-0.54478 z m 1.752771,0.53996 c -0.558903,-0.5589 -0.543417,-1.00102 0.054,-1.54167 0.559685,-0.50651 1.255322,-0.57004 1.521734,-0.13898 0.112892,0.18267 0.04179,0.24802 -0.182822,0.16805 -0.503866,-0.1794 -1.2936,0.2624 -1.2936,0.72367 0,0.35618 1.020416,1.107 1.091406,0.80306 0.01819,-0.0779 0.04796,-0.25074 0.06615,-0.38414 0.01819,-0.13339 0.13379,-0.34175 0.256888,-0.46302 0.123098,-0.12126 0.182629,0.0772 0.132292,0.44098 -0.111152,0.80331 -1.01864,1.01946 -1.646044,0.39205 z m 2.127784,0.22531 c -0.481643,-0.48165 0.27892,-2.20486 0.973143,-2.20486 0.130998,0 0.08996,0.17859 -0.0912,0.39687 -0.330412,0.39812 -0.07847,0.5544 0.65712,0.4076 0.868604,-0.17333 1.632907,-0.15169 1.905655,0.054 0.188448,0.14209 0.525556,0.1233 0.843838,-0.047 0.291512,-0.15601 0.591537,-0.18413 0.666722,-0.0625 0.07518,0.12166 0.511524,0.16618 0.969643,0.0989 0.780074,-0.11449 0.81381,-0.0865 0.531507,0.44099 -0.198295,0.37052 -0.207719,0.56324 -0.02754,0.56324 0.15064,0 0.273892,0.11906 0.273892,0.26458 0,0.14552 -0.297656,0.26459 -0.661458,0.26459 -0.720181,0 -0.837272,-0.24752 -0.348368,-0.73643 0.172199,-0.1722 0.21543,-0.40437 0.09607,-0.51593 -0.119362,-0.11157 -0.270175,-0.054 -0.335139,0.12788 -0.06497,0.1819 -0.376087,0.34454 -0.691382,0.36142 -0.44744,0.0239 -0.471637,0.0573 -0.110243,0.15169 0.254662,0.0666 0.463021,0.23133 0.463021,0.36618 0,0.33552 -0.722098,0.31059 -0.933982,-0.0323 -0.117213,-0.18965 -0.289576,-0.1794 -0.544782,0.0324 -0.306373,0.25427 -0.373319,0.17591 -0.373319,-0.43694 0,-0.80523 -0.386645,-0.62305 -0.605085,0.2851 -0.0962,0.39994 -0.134777,0.35148 -0.157973,-0.19844 -0.03918,-0.92874 -0.559859,-0.96012 -0.559859,-0.0337 0,0.56731 -0.06809,0.63735 -0.37332,0.38403 -0.255205,-0.2118 -0.427568,-0.22205 -0.544781,-0.0324 -0.193065,0.31239 -0.75526,0.36796 -1.022177,0.10105 z m 0.881945,-0.76527 c 0,-0.20969 -0.119063,-0.38126 -0.264584,-0.38126 -0.14552,0 -0.264583,0.24515 -0.264583,0.54478 0,0.29963 0.119063,0.4712 0.264583,0.38126 0.145521,-0.0899 0.264584,-0.33509 0.264584,-0.54478 z m -8.202083,-1.17501 c 0,-0.14552 0.119062,-0.26458 0.264583,-0.26458 0.145521,0 0.264583,0.11906 0.264583,0.26458 0,0.14552 -0.119062,0.26458 -0.264583,0.26458 -0.145521,0 -0.264583,-0.11906 -0.264583,-0.26458 z m -7.496528,-0.97014 c -0.09701,-0.097 -0.176389,-0.56821 -0.176389,-1.0471 v -0.87071 l 1.653646,0.78231 c 0.909505,0.43027 1.891771,0.79077 2.182812,0.80111 0.291042,0.0103 0.767292,0.12113 1.058334,0.2462 0.347038,0.14912 -0.343531,0.23379 -2.006424,0.24598 -1.394575,0.0102 -2.614965,-0.0608 -2.711979,-0.15779 z m 14.243402,-0.45677 c 3.313199,-1.06822 5.256952,-2.3722 6.531535,-4.38172 l 0.76292,-1.20283 -0.07535,3.04271 -0.07535,3.04271 -4.497916,0.0481 -4.497917,0.0481 z m -8.515471,-1.33193 c -5.056096,-1.22587 -6.275026,-6.54836 -2.135075,-9.32285 1.407199,-0.94307 3.26044,-1.23571 8.004713,-1.26399 2.385217,-0.0142 2.795723,0.0578 4.167539,0.73146 1.939005,0.95215 2.911244,2.4445 2.930561,4.49832 0.02367,2.51684 -1.523756,4.2 -4.788341,5.20832 -1.985689,0.61332 -5.964819,0.68568 -8.179397,0.14874 z M 76.86415,137.4468 c 0.02015,-2.77936 0.04599,-2.92083 0.39,-2.13538 0.389542,0.88942 1.701739,2.01853 2.697271,2.32093 0.895384,0.27198 0.736035,0.54441 -0.838064,1.43278 -0.788357,0.44492 -1.509759,0.93253 -1.603115,1.08359 -0.483073,0.78163 -0.66581,0.0174 -0.646092,-2.70192 z m 20.957392,0.47985 c -0.717481,-1.10791 -2.417009,-2.3057 -4.177934,-2.94454 -1.101008,-0.39942 -2.190281,-0.4826 -6.493754,-0.4959 -4.487201,-0.0139 -5.265519,-0.078 -5.886979,-0.4851 -0.573789,-0.37587 -0.716141,-0.67216 -0.716141,-1.49056 0,-0.85679 0.171456,-1.17635 1.063601,-1.98235 1.022261,-0.92355 1.092687,-0.94586 1.811942,-0.57392 0.411588,0.21284 1.518506,0.52889 2.459819,0.70234 2.970747,0.54738 6.476646,-0.44921 8.837719,-2.51221 0.971975,-0.84927 1.011597,-0.9387 0.601965,-1.35871 -0.411924,-0.42235 -0.496066,-0.40569 -1.388526,0.27502 -1.314678,1.00276 -2.659592,1.43159 -4.522979,1.44219 -3.688012,0.021 -6.30509,-2.51989 -7.406311,-7.19063 -0.495849,-2.1031 -0.496919,-3.15558 -0.0051,-5.04368 0.776926,-2.98283 2.533037,-4.68717 5.044086,-4.89541 1.727333,-0.14324 2.455563,0.25087 3.45701,1.87093 1.324114,2.14203 2.763961,2.63336 4.064814,1.38707 0.967749,-0.92717 2.058709,-1.07283 3.11376,-0.41574 L 98.5384,114.751 v 12.04243 c 0,6.62334 -0.02977,12.04096 -0.06615,12.03915 -0.03638,-0.002 -0.3292,-0.40947 -0.650712,-0.90593 z M 76.9073,122.43169 l 0.06756,-11.24479 3.307291,-0.0664 3.307292,-0.0664 -1.167562,0.98404 c -2.740394,2.30966 -4.140146,5.77956 -3.943858,9.77659 0.130543,2.65826 0.88477,4.53471 2.487422,6.18848 l 0.912183,0.94128 -0.986994,0.47067 c -1.587222,0.75689 -2.893745,1.93044 -3.492934,3.13742 l -0.557957,1.12393 z m 17.000892,-10.58333 -0.760461,-0.79375 2.232314,0.005 2.232313,0.005 -1.431334,0.78895 c -0.787234,0.43393 -1.449568,0.78896 -1.471853,0.78896 -0.02228,0 -0.382726,-0.35719 -0.800979,-0.79375 z"
         id="path3826"
         inkscape:connector-curvature="0" />
      <path
         style="fill:#8fa3b7;stroke-width:0.26458332"
         d="m 76.950729,157.52151 c -0.0769,-0.20039 -0.102926,-0.94453 -0.05784,-1.65364 l 0.08197,-1.2893 h 10.715624 10.715625 l 0.07877,1.65364 0.07877,1.65365 H 87.827097 c -8.873514,0 -10.760815,-0.0632 -10.876368,-0.36435 z m 1.903395,-1.70624 c -0.398429,-0.39843 -0.405772,-0.37705 -0.09686,0.28192 0.183842,0.39217 0.377843,0.58617 0.431114,0.43112 0.05327,-0.15506 -0.09714,-0.47592 -0.334258,-0.71304 z m 4.165161,0.60397 c -0.08617,-0.22456 -0.213419,-0.35154 -0.282774,-0.28219 -0.06935,0.0694 -0.04762,0.25309 0.0483,0.40829 0.260892,0.42213 0.413379,0.34012 0.234472,-0.1261 z m 1.14226,-0.45161 c -0.0734,-0.1819 -0.133452,-0.0331 -0.133452,0.33073 0,0.3638 0.06005,0.51263 0.133452,0.33073 0.0734,-0.1819 0.0734,-0.47956 0,-0.66146 z m 3.976876,-0.12726 c -0.06708,-0.25743 -0.126382,-0.11087 -0.131774,0.3257 -0.0054,0.43656 0.04949,0.64718 0.12197,0.46805 0.07247,-0.17913 0.07689,-0.53632 0.0098,-0.79375 z m 7.316281,0.57887 c -0.08617,-0.22456 -0.213419,-0.35154 -0.282774,-0.28219 -0.06935,0.0694 -0.04762,0.25309 0.0483,0.40829 0.260892,0.42213 0.41338,0.34012 0.234473,-0.1261 z m -10.758478,-0.43507 c -0.08446,-0.21107 -0.147157,-0.14838 -0.159852,0.15985 -0.01149,0.27891 0.05105,0.43518 0.138964,0.34727 0.08792,-0.0879 0.09732,-0.31613 0.02089,-0.50712 z m 5.187684,0.0492 c 0.07616,-0.29124 0.03052,-0.46281 -0.101433,-0.38126 -0.131949,0.0815 -0.239908,0.31984 -0.239908,0.52953 0,0.54762 0.179783,0.46953 0.341341,-0.14827 z m 1.026145,-0.32548 c -0.196339,-0.19634 -0.230773,-0.093 -0.115686,0.34705 0.09356,0.35777 0.213493,0.47771 0.279545,0.27955 0.06363,-0.19088 -0.01011,-0.47285 -0.163859,-0.6266 z m 1.278347,0.75512 c 0,-0.0549 -0.208359,-0.2633 -0.463021,-0.46302 -0.419644,-0.32911 -0.429002,-0.31975 -0.09989,0.0999 0.345643,0.44073 0.562915,0.58089 0.562915,0.36313 z m 2.116667,0 c 0,-0.0549 -0.20836,-0.2633 -0.463021,-0.46302 -0.419644,-0.32911 -0.429002,-0.31975 -0.09989,0.0999 0.345644,0.44073 0.562916,0.58089 0.562916,0.36313 z m -11.90625,-0.26867 c 0,-0.0572 -0.184778,-0.17489 -0.410617,-0.26156 -0.235459,-0.0904 -0.341662,-0.046 -0.248968,0.10399 0.155378,0.2514 0.659585,0.37185 0.659585,0.15757 z m 5.027083,-0.1606 c 0,-0.14553 -0.126089,-0.26459 -0.280198,-0.26459 -0.154109,0 -0.206614,0.11906 -0.116677,0.26459 0.08994,0.14552 0.216026,0.26458 0.280198,0.26458 0.06417,0 0.116677,-0.11906 0.116677,-0.26458 z m -4.47932,-2.84428 c -0.017,-1.02801 0.03815,-1.12447 0.642862,-1.12447 0.529167,0 0.661458,0.13229 0.661458,0.66145 0,0.59774 -0.118926,0.70416 -0.717274,0.64188 -0.103459,-0.0108 -0.273684,0.19759 -0.378278,0.46302 -0.125502,0.31849 -0.196496,0.10021 -0.208768,-0.64188 z m 1.039737,-0.47863 c 0,-0.20969 -0.178594,-0.38126 -0.396875,-0.38126 -0.398523,0 -0.543898,0.55853 -0.227679,0.87475 0.24692,0.24692 0.624554,-0.0515 0.624554,-0.49349 z m -6.719289,0.37158 c -0.293299,-0.41874 -0.327805,-0.70365 -0.129987,-1.07328 0.353602,-0.66071 0.985822,-0.88696 1.376956,-0.49277 0.241325,0.24321 0.222117,0.28217 -0.08393,0.17021 -0.613125,-0.2243 -1.114191,0.23836 -1.015336,0.9375 0.06434,0.45504 0.251997,0.62606 0.671452,0.61195 0.320186,-0.0108 0.521519,0.0785 0.447406,0.19843 -0.245597,0.39739 -0.861562,0.22618 -1.266561,-0.35204 z m 1.79969,0.26536 c -0.10358,-0.1676 0.01477,-0.45323 0.262992,-0.63474 0.341976,-0.25006 0.367795,-0.36348 0.106568,-0.46814 -0.222704,-0.0892 -0.180836,-0.14552 0.118268,-0.15902 0.338491,-0.0153 0.457403,0.1748 0.442133,0.70672 -0.01149,0.40018 -0.08094,0.57878 -0.154341,0.39687 -0.0734,-0.1819 -0.238856,-0.33072 -0.367682,-0.33072 -0.128827,0 -0.165698,0.17859 -0.08194,0.39687 0.179118,0.46678 -0.05378,0.53261 -0.326002,0.0922 z m 10.803488,-0.003 c -0.416918,-0.41691 -0.422272,-1.34425 -0.01014,-1.75638 0.385555,-0.38556 1.178085,-0.41569 1.402047,-0.0533 0.09317,0.15076 -0.08285,0.23596 -0.409968,0.19844 -0.8597,-0.0986 -1.293858,0.7266 -0.693611,1.31835 0.454187,0.44775 0.492191,0.44511 0.879182,-0.0612 l 0.404476,-0.52917 -0.09262,0.52917 c -0.107759,0.61566 -1.003421,0.83004 -1.479367,0.35409 z m 2.784476,-0.36389 c 0.10301,-0.53886 0.04487,-0.68814 -0.230399,-0.59157 -0.202496,0.071 -0.351638,0.32469 -0.331427,0.56369 0.02021,0.239 -0.07737,0.43455 -0.216839,0.43455 -0.527082,0 -0.07977,-1.1913 0.477145,-1.27076 0.705496,-0.10066 1.057648,0.69091 0.53838,1.21018 -0.323124,0.32312 -0.355691,0.27553 -0.23686,-0.34609 z M 96.032,153.3991 c -0.08601,-0.13916 -0.331161,-0.18596 -0.544782,-0.10398 -0.265745,0.10198 -0.388401,-0.027 -0.388401,-0.40843 0,-0.74351 -0.462078,-0.71471 -0.607025,0.0378 l -0.114662,0.59531 -0.03603,-0.59531 c -0.04455,-0.7361 -0.565198,-0.79703 -0.565198,-0.0661 0,0.29104 -0.102552,0.52916 -0.227893,0.52916 -0.125341,0 -0.170992,-0.29765 -0.101447,-0.66146 0.103333,-0.54055 0.280401,-0.66145 0.968726,-0.66145 0.463255,0 0.985156,0.14287 1.159781,0.3175 0.246944,0.24694 0.3175,0.24694 0.3175,0 0,-0.39324 0.962912,-0.42137 1.201631,-0.0351 0.096,0.15534 -0.07419,0.34743 -0.378284,0.42695 -0.304047,0.0795 -0.486393,0.25204 -0.405214,0.38338 0.08118,0.13135 0.276829,0.15895 0.434779,0.0613 0.171405,-0.10594 0.211073,-0.0543 0.09839,0.12797 -0.229431,0.37123 -0.600057,0.39516 -0.811874,0.0524 z m -15.449235,-0.62284 c -0.03405,-0.7027 0.01851,-0.73906 0.956156,-0.66146 0.796982,0.066 1.008822,0.19925 1.076735,0.67743 0.04658,0.32795 -0.05526,0.59532 -0.226745,0.59532 -0.171211,0 -0.244223,-0.17478 -0.162249,-0.3884 0.08197,-0.21363 0.03417,-0.4594 -0.106222,-0.54617 -0.140396,-0.0868 -0.365774,0.11778 -0.50084,0.45455 l -0.245574,0.61231 -0.01677,-0.59531 c -0.0092,-0.32743 -0.127553,-0.59532 -0.262952,-0.59532 -0.1354,0 -0.29778,0.26789 -0.360844,0.59532 -0.09622,0.49956 -0.120457,0.47572 -0.150695,-0.14827 z m 4.026854,-0.0504 c -0.02099,-0.36369 0.06831,-0.66126 0.198437,-0.66126 0.130127,0 0.236594,0.29765 0.236594,0.66145 0,0.86198 -0.385292,0.86182 -0.435031,-1.8e-4 z m 0.918851,-0.39668 c 0.05551,-0.58208 0.147954,-1.05833 0.205429,-1.05833 0.05748,0 0.104501,0.47625 0.104501,1.05833 0,0.58208 -0.09244,1.05833 -0.205429,1.05833 -0.112986,0 -0.160012,-0.47625 -0.104501,-1.05833 z m 0.91116,0 c 0,-0.65484 0.0516,-0.92274 0.114662,-0.59531 0.06306,0.32742 0.06306,0.8632 0,1.19062 -0.06306,0.32742 -0.114662,0.0595 -0.114662,-0.59531 z m 0.557646,0.67413 c -0.206087,-0.53706 0.100757,-0.93871 0.717126,-0.93871 0.62348,0 0.962043,0.70737 0.54038,1.12903 -0.223232,0.22323 -0.299715,0.14555 -0.299715,-0.30442 0,-0.36859 -0.128945,-0.55904 -0.330729,-0.48848 -0.181901,0.0636 -0.295744,0.31165 -0.252985,0.55121 0.09605,0.53815 -0.1731,0.57511 -0.374077,0.0514 z m 10.590249,-0.11752 c 0.352827,-0.38987 0.376716,-0.53268 0.107153,-0.64057 -0.190796,-0.0764 -0.07627,-0.14825 0.254509,-0.15974 0.581241,-0.0202 0.586875,0.001 0.168008,0.64057 -0.238373,0.36381 -0.557227,0.66146 -0.708565,0.66146 -0.151339,0 -0.07084,-0.22577 0.178895,-0.50172 z m -5.266833,-1.35036 c 0.08994,-0.14552 0.282584,-0.26458 0.428105,-0.26458 0.14552,0 0.190998,0.11906 0.101061,0.26458 -0.08994,0.14552 -0.282584,0.26458 -0.428104,0.26458 -0.145521,0 -0.190999,-0.11906 -0.101062,-0.26458 z m -15.301736,-0.97014 c -0.182798,-0.1828 -0.252049,-1.67569 -0.07773,-1.67569 0.05426,0 0.67934,0.25749 1.389063,0.5722 0.709722,0.31472 1.826185,0.72079 2.481029,0.90238 1.187117,0.32921 1.183543,0.33025 -1.212674,0.35384 -1.321814,0.013 -2.482673,-0.0557 -2.579688,-0.15273 z m 13.714236,-0.0773 c 0.291041,-0.11986 1.336676,-0.54355 2.323631,-0.94153 1.875731,-0.75637 4.129284,-2.54362 4.9929,-3.95977 l 0.486699,-0.79809 9.79e-4,2.81597 c 8.2e-4,2.32432 -0.07208,2.844 -0.417526,2.97656 -0.653349,0.25071 -7.996796,0.15812 -7.386693,-0.0931 z m -6.879167,-1.58668 c -2.59819,-0.43127 -4.286081,-1.47487 -5.161817,-3.19145 -0.925343,-1.81382 -0.664394,-3.45065 0.819563,-5.14078 1.629885,-1.85634 2.421067,-2.07394 7.649546,-2.10392 4.317476,-0.0248 4.705122,0.0135 5.739359,0.56631 1.633316,0.87305 2.529798,2.18839 2.673629,3.9228 0.06817,0.82199 -0.02117,1.77315 -0.209168,2.22702 -0.486734,1.17508 -2.110272,2.50862 -3.869726,3.17853 -1.735224,0.66068 -5.371175,0.91833 -7.641386,0.54149 z m -7.010469,-11.29033 9.89e-4,-2.87654 0.498335,0.81722 c 0.596311,0.97788 1.733653,1.91386 2.585385,2.12763 0.340158,0.0854 0.616753,0.23161 0.614656,0.32498 -0.0021,0.0934 -0.567643,0.49572 -1.25677,0.89412 -0.689128,0.39841 -1.52085,0.91895 -1.848272,1.15676 l -0.595312,0.43237 z m 20.518837,-0.2774 c -0.686589,-0.80253 -1.637176,-1.50105 -2.778125,-2.04146 -1.732152,-0.82043 -1.741692,-0.82167 -7.330003,-0.95417 -5.021378,-0.11906 -5.652646,-0.1844 -6.151562,-0.63671 -0.981356,-0.88967 -0.658104,-2.3177 0.751913,-3.32172 l 0.779793,-0.55526 1.668142,0.56438 c 2.562757,0.86706 5.379383,0.64875 7.935709,-0.61508 2.375081,-1.17423 3.632628,-2.36514 3.133079,-2.96706 -0.431742,-0.52021 -0.909931,-0.51674 -1.346905,0.01 -0.189984,0.22891 -0.829641,0.66565 -1.421459,0.97052 -1.327502,0.68386 -4.5398,0.7628 -5.978821,0.14694 -3.546868,-1.51798 -5.81881,-8.10543 -4.316304,-12.51504 0.572346,-1.67974 2.318007,-3.43755 3.813778,-3.84032 1.704342,-0.45894 2.738341,-0.15137 3.745883,1.11422 1.757553,2.20769 2.233317,2.59496 3.187943,2.59496 0.601561,0 1.148508,-0.22311 1.621484,-0.66146 0.844295,-0.78246 1.989658,-0.85931 3.093035,-0.20753 l 0.768427,0.45392 v 11.8492 c 0,6.51706 -0.02977,11.8453 -0.06615,11.84053 -0.03638,-0.005 -0.535818,-0.55766 -1.109861,-1.22864 z m -20.443637,-15.03456 0.0561,-11.1125 3.271646,-0.0745 3.271646,-0.0745 -1.47646,1.3494 c -2.779491,2.5403 -4.260422,6.82716 -3.622998,10.48752 0.350032,2.01003 1.201759,3.83837 2.371376,5.09045 0.448249,0.47985 0.814998,0.91381 0.814998,0.96435 0,0.0505 -0.391573,0.27771 -0.870163,0.50482 -1.335565,0.63377 -2.791308,1.93801 -3.359298,3.00969 l -0.512952,0.96784 z m 17.139271,-10.4839 -0.562552,-0.76089 h 1.727713 c 0.950241,0 1.727712,0.0494 1.727712,0.10967 0,0.0603 -0.524322,0.40272 -1.165161,0.76089 l -1.165161,0.65122 z"
         id="path3824"
         inkscape:connector-curvature="0" />
      <path
         style="fill:#6f8ba9;stroke-width:0.26458332"
         d="m 76.951884,157.52452 c -0.07753,-0.20205 -0.104081,-0.94754 -0.059,-1.65665 l 0.08197,-1.2893 h 10.715624 10.715625 v 1.5875 1.5875 l -10.656629,0.0692 c -8.894319,0.0577 -10.67994,0.008 -10.797595,-0.2982 z m 1.886956,-1.71517 c -0.417878,-0.40911 -0.424705,-0.38863 -0.106859,0.32058 0.186746,0.41669 0.387625,0.61336 0.446398,0.43704 0.05877,-0.17632 -0.09402,-0.51725 -0.339539,-0.75762 z m 2.475114,0.42286 c -0.420775,-0.80874 -0.41591,-0.80607 -0.599212,-0.32839 -0.09381,0.24445 -0.0519,0.35401 0.0996,0.26037 0.143854,-0.0889 0.261553,0.024 0.261553,0.25084 0,0.22687 0.123252,0.4125 0.273893,0.4125 0.178181,0 0.165658,-0.20803 -0.03584,-0.59532 z m 1.746321,-0.071 c 0,-0.52684 -0.05769,-0.58741 -0.275624,-0.28937 -0.204873,0.28018 -0.400963,0.3068 -0.763897,0.10369 -0.364884,-0.2042 -0.438829,-0.19325 -0.292614,0.0433 0.107612,0.17412 0.451366,0.41975 0.763897,0.54585 0.312531,0.1261 0.568238,0.23682 0.568238,0.24604 0,0.009 0,-0.28307 0,-0.64954 z m 1.451741,0.39612 c 0.12552,0.2031 0.246046,0.0626 0.331992,-0.38699 0.0944,-0.49384 0.05133,-0.62225 -0.143418,-0.42751 -0.183847,0.18385 -0.384957,0.18988 -0.592355,0.0178 -0.233773,-0.19402 -0.278278,-0.0741 -0.174179,0.46932 0.0769,0.40145 0.194068,0.56761 0.260363,0.36925 0.09093,-0.27209 0.168935,-0.28236 0.317597,-0.0418 z m 2.913884,-0.52355 c -0.169101,-0.31597 -0.366988,-0.51496 -0.439748,-0.4422 -0.07276,0.0728 0.0061,0.39081 0.175165,0.70678 0.169101,0.31597 0.366988,0.51495 0.439748,0.44219 0.07276,-0.0728 -0.0061,-0.39081 -0.175165,-0.70677 z m 0.712521,-0.19341 c -0.06708,-0.25743 -0.126382,-0.11087 -0.131774,0.3257 -0.0054,0.43656 0.04949,0.64718 0.12197,0.46805 0.07247,-0.17913 0.07689,-0.53632 0.0098,-0.79375 z m 0.932647,-0.11934 c -0.165665,-0.16567 -0.202542,0.008 -0.104101,0.49112 0.112905,0.55376 0.179438,0.6203 0.256541,0.25654 0.05725,-0.27012 -0.01134,-0.60657 -0.15244,-0.74766 z m 0.868374,0.45827 c 0,-0.37478 -0.09853,-0.5497 -0.23357,-0.41466 -0.128463,0.12846 -0.161965,0.42016 -0.07445,0.64823 0.223267,0.58182 0.308019,0.51755 0.30802,-0.23357 z m 1.190625,-0.0132 c 0,-0.20111 -0.0893,-0.42084 -0.198438,-0.48829 -0.10914,-0.0675 -0.198437,0.15228 -0.198437,0.48829 0,0.33601 0.0893,0.55574 0.198437,0.48828 0.109141,-0.0674 0.198438,-0.28718 0.198438,-0.48828 z m 0.688445,-0.17406 c -0.233124,-0.33283 -0.423862,-0.45456 -0.423862,-0.27052 0,0.35345 0.595947,1.11492 0.754592,0.96417 0.05122,-0.0487 -0.09761,-0.36081 -0.33073,-0.69365 z m 3.718796,0.1183 c 0.03415,-0.58824 -0.004,-0.6353 -0.212758,-0.2623 -0.139905,0.25 -0.181371,0.57266 -0.09215,0.71703 0.233771,0.37825 0.258704,0.34106 0.304904,-0.45473 z m -1.232241,0.21636 c 0,-0.12996 -0.195435,-0.31127 -0.434299,-0.40293 -0.363133,-0.13935 -0.379502,-0.10064 -0.0999,0.23627 0.381034,0.45912 0.534194,0.5069 0.534194,0.16666 z m -11.377083,-3.15921 c 0,-0.60634 0.09737,-1.10243 0.216388,-1.10243 0.229714,0 0.16272,1.82575 -0.07574,2.06421 -0.07735,0.0774 -0.140644,-0.35545 -0.140644,-0.96178 z m 7.0369,0.13951 c -0.534496,-0.39083 -0.493976,-1.53016 0.06092,-1.71303 0.288325,-0.095 0.29042,-0.0187 0.01175,0.4275 -0.288072,0.46127 -0.264996,0.62515 0.153077,1.08712 0.561655,0.62062 0.466288,0.70444 -0.225747,0.19841 z m -12.681345,-0.0954 c -0.240083,-0.24008 -0.223787,-1.35058 0.02205,-1.50252 0.10914,-0.0675 0.198437,0.28271 0.198437,0.77814 0,0.49542 -0.0099,0.90077 -0.02205,0.90077 -0.01213,0 -0.101424,-0.0794 -0.198437,-0.17639 z m 2.469445,-0.33073 c 0,-0.27891 -0.148829,-0.56717 -0.33073,-0.64057 -0.197575,-0.0797 -0.144313,-0.14186 0.132292,-0.15434 0.32307,-0.0146 0.463021,0.17905 0.463021,0.64057 0,0.36381 -0.05953,0.66146 -0.132292,0.66146 -0.07276,0 -0.132291,-0.2282 -0.132291,-0.50712 z m 0.829781,-0.10416 c -0.03405,-0.7027 0.01851,-0.73906 0.956156,-0.66146 0.817552,0.0677 0.998384,0.18761 1.027391,0.68149 0.02928,0.49858 0.01507,0.5097 -0.08455,0.0661 -0.161693,-0.71998 -0.81207,-0.67767 -0.954555,0.0621 l -0.114662,0.59531 -0.03603,-0.59531 c -0.01982,-0.32742 -0.146813,-0.59531 -0.282213,-0.59531 -0.135399,0 -0.297779,0.26789 -0.360843,0.59531 -0.09622,0.49957 -0.120458,0.47572 -0.150694,-0.14826 z m 3.27126,-0.0249 c 0,-0.34991 0.0893,-0.581 0.198438,-0.51355 0.10914,0.0675 0.198437,0.35374 0.198437,0.63619 0,0.28245 -0.0893,0.51355 -0.198437,0.51355 -0.109141,0 -0.198438,-0.28628 -0.198438,-0.63619 z m 0.977622,-0.0253 c 0.0054,-0.43656 0.06469,-0.58312 0.131774,-0.32569 0.06708,0.25743 0.06267,0.61462 -0.0098,0.79375 -0.07248,0.17913 -0.127363,-0.0315 -0.121971,-0.46806 z m 0.814233,-0.39687 c 0,-0.65484 0.0516,-0.92274 0.114662,-0.59531 0.06306,0.32742 0.06306,0.8632 0,1.19062 -0.06306,0.32742 -0.114662,0.0595 -0.114662,-0.59531 z m 0.79375,0 c 0,-0.65484 0.0516,-0.92274 0.114662,-0.59531 0.06306,0.32742 0.06306,0.8632 0,1.19062 -0.06306,0.32742 -0.114662,0.0595 -0.114662,-0.59531 z m 0.545959,0.64367 c -0.08752,-0.22806 -0.0361,-0.53768 0.114261,-0.68804 0.188119,-0.18812 0.260965,-0.0588 0.23357,0.41448 -0.04589,0.79282 -0.124767,0.85486 -0.347831,0.27356 z m 1.035624,-0.2468 c 0,-0.35849 0.104179,-0.58742 0.23151,-0.50872 0.127331,0.0787 0.23151,0.30762 0.23151,0.50872 0,0.20111 -0.104179,0.43004 -0.23151,0.50873 -0.127331,0.0787 -0.23151,-0.15023 -0.23151,-0.50873 z m 3.129742,0.24254 c 0.0127,-0.30823 0.07539,-0.37092 0.159852,-0.15985 0.07643,0.19099 0.06703,0.41919 -0.02089,0.50712 -0.08792,0.0879 -0.150453,-0.0684 -0.138965,-0.34727 z m 0.597134,0.004 c -0.08752,-0.22806 -0.05401,-0.51977 0.07445,-0.64823 0.135037,-0.13503 0.233569,0.0399 0.233569,0.41466 0,0.75113 -0.08475,0.8154 -0.308019,0.23357 z m 0.908263,-0.22827 c -0.07149,-0.37399 -0.04018,-0.67998 0.0696,-0.67998 0.327029,0 0.557387,0.86298 0.29926,1.1211 -0.142105,0.14211 -0.291528,-0.0366 -0.368858,-0.44112 z m 0.890996,0.0476 c -0.03278,-0.66202 0.04744,-0.7276 0.89001,-0.7276 0.842574,0 0.922794,0.0656 0.890011,0.7276 -0.03089,0.62385 -0.05238,0.64271 -0.150694,0.13229 -0.06306,-0.32742 -0.217163,-0.59531 -0.342442,-0.59531 -0.125278,0 -0.279377,0.26789 -0.342441,0.59531 l -0.114662,0.59531 -0.03603,-0.59531 c -0.01982,-0.32742 -0.146813,-0.59531 -0.282213,-0.59531 -0.135399,0 -0.297779,0.26789 -0.360843,0.59531 -0.09831,0.51042 -0.1198,0.49156 -0.150694,-0.13229 z m 2.291371,0.30674 c -0.08898,-0.23148 -0.0602,-0.58522 0.06394,-0.78609 0.321525,-0.52024 0.462077,-0.2313 0.265351,0.5455 -0.128493,0.50737 -0.205201,0.56341 -0.329291,0.24059 z m 1.827433,-0.36457 c 0.261455,-0.35923 0.570228,-0.65689 0.686163,-0.66146 0.115934,-0.005 -0.0031,0.2856 -0.264584,0.64483 -0.261455,0.35923 -0.570228,0.65688 -0.686162,0.66146 -0.115935,0.005 0.0031,-0.2856 0.264583,-0.64483 z m -0.958947,-0.29495 c 0.01269,-0.30822 0.07539,-0.37092 0.159852,-0.15985 0.07643,0.19099 0.06703,0.4192 -0.02089,0.50712 -0.08792,0.0879 -0.150453,-0.0683 -0.138964,-0.34727 z m -19.547138,-2.01524 c -0.314762,-0.31476 -0.451538,-1.53458 -0.172069,-1.53458 0.07999,0 0.526471,0.19844 0.992187,0.44098 0.465716,0.24254 1.501601,0.6484 2.301965,0.90191 l 1.455209,0.46092 -2.129896,0.0241 c -1.334277,0.0151 -2.248498,-0.0945 -2.447396,-0.29336 z m 15.487485,-0.58762 c 2.015436,-0.74882 4.291429,-2.42354 5.132718,-3.77676 l 0.625838,-1.00666 0.07711,2.36031 c 0.04241,1.29817 0.01638,2.51856 -0.05784,2.71198 -0.103578,0.26991 -0.982585,0.34846 -3.781273,0.33788 l -3.646325,-0.0138 z m -8.42034,-0.93925 c -4.402716,-0.55644 -6.909671,-3.5319 -5.682693,-6.7447 0.481661,-1.26121 1.855645,-2.64367 3.173597,-3.19318 0.447146,-0.18643 2.546931,-0.42457 4.666188,-0.5292 4.540368,-0.22417 6.233548,0.11221 7.746299,1.53891 1.503131,1.41764 1.921724,4.25774 0.865191,5.87021 -1.570826,2.39738 -6.013388,3.65894 -10.768582,3.05796 z m -7.37623,-11.18197 c 0.0076,-2.45144 0.04623,-2.66476 0.396105,-2.1872 0.8221,1.1221 1.516008,1.71029 2.390918,2.02666 1.029524,0.37228 1.147,0.64018 0.386561,0.88153 -0.287192,0.0911 -1.12063,0.5774 -1.852083,1.08055 l -1.329916,0.91483 z m 21.167447,0.21143 c -0.502592,-0.93936 -1.986316,-2.10467 -3.611907,-2.83679 -1.161163,-0.52295 -1.877576,-0.59725 -7.070609,-0.73333 -5.667863,-0.14853 -5.788206,-0.16339 -6.283854,-0.77605 -0.277929,-0.34355 -0.505325,-0.80143 -0.505325,-1.01751 0,-0.58845 0.751452,-1.73273 1.50731,-2.29528 0.64646,-0.48113 0.701179,-0.48194 1.631314,-0.0242 1.396765,0.6874 5.092626,0.8372 6.996973,0.28359 1.729665,-0.50282 4.770451,-2.48682 4.908269,-3.20245 0.05221,-0.2711 -0.113926,-0.64562 -0.369189,-0.83227 -0.395305,-0.28906 -0.585896,-0.23667 -1.285541,0.35333 -0.451786,0.38099 -1.204557,0.85326 -1.672826,1.04948 -1.252286,0.52478 -4.477775,0.44832 -5.765455,-0.13666 -2.622954,-1.19158 -4.630148,-5.16274 -4.626463,-9.15329 0.0019,-2.01419 0.315066,-3.14356 1.30448,-4.7037 0.979274,-1.54415 2.402634,-2.31831 4.262423,-2.31831 1.453279,0 1.475387,0.0159 3.772377,2.71269 1.20189,1.41109 2.248862,1.56325 3.371859,0.49005 1.059817,-1.01281 2.287327,-1.09729 3.286625,-0.22618 l 0.682915,0.59531 -0.07285,11.74806 c -0.0651,10.49888 -0.11407,11.67102 -0.460527,11.02349 z M 76.842567,122.39202 c 0,-7.97132 0.08102,-10.78343 0.3175,-11.01991 0.209669,-0.20967 1.338027,-0.3175 3.322373,-0.3175 h 3.004873 l -1.561622,1.44579 c -4.382739,4.05764 -4.92823,10.87967 -1.230745,15.39196 0.836674,1.02105 0.871813,1.13042 0.410265,1.27691 -0.916166,0.29077 -2.660178,1.71301 -3.467932,2.82808 l -0.794712,1.09707 z m 17.330208,-10.54366 c -0.473827,-0.52357 -0.462375,-0.52905 1.083472,-0.51808 l 1.562361,0.0111 -0.926041,0.50699 c -1.161591,0.63594 -1.14427,0.63594 -1.719792,0 z"
         id="path3822"
         inkscape:connector-curvature="0" />
      <path
         style="fill:#4f7590;stroke-width:0.26458332"
         d="m 77.021917,157.71243 c -0.332518,-0.33252 -0.189596,-2.66369 0.182228,-2.97228 0.25927,-0.21517 3.309967,-0.28049 10.781771,-0.23083 l 10.420192,0.0693 v 1.5875 1.5875 l -10.60242,0.0691 c -5.831332,0.038 -10.683129,-0.0116 -10.781771,-0.11024 z m 6.198482,-0.98366 c -0.16585,-0.19984 -0.23024,-0.58679 -0.143089,-0.8599 0.146063,-0.45772 0.129708,-0.46183 -0.209102,-0.0526 -0.2511,0.3033 -0.48848,0.36746 -0.749204,0.20249 -0.32433,-0.2052 -0.325354,-0.24207 -0.0068,-0.24552 0.206154,-0.002 0.303372,-0.0755 0.21604,-0.16283 -0.08733,-0.0873 -0.293525,-0.0755 -0.458208,0.0263 -0.209786,0.12965 -0.164867,0.33373 0.15005,0.68171 0.247209,0.27316 0.544394,0.438 0.660412,0.3663 0.116017,-0.0717 0.285725,-0.009 0.377129,0.13853 0.0914,0.14789 0.233272,0.26889 0.315262,0.26889 0.08199,0 0.01338,-0.1635 -0.152471,-0.36333 z m 1.964123,0.005 c -0.334835,-0.24484 -0.42985,-0.51766 -0.299477,-0.8599 0.151229,-0.39699 0.122952,-0.43379 -0.135924,-0.17685 -0.218622,0.21699 -0.430874,0.23813 -0.640886,0.0638 -0.232155,-0.19267 -0.281084,-0.0884 -0.187707,0.40009 0.06946,0.36338 0.207666,0.6104 0.307114,0.54894 0.09945,-0.0615 0.353724,-0.002 0.565058,0.13132 0.604868,0.38265 0.937364,0.29148 0.391822,-0.10743 z m 4.890008,-0.0349 c -0.179619,-0.21642 -0.251004,-0.59045 -0.158632,-0.83117 0.14056,-0.36629 0.102238,-0.38313 -0.234983,-0.10326 -0.275697,0.22879 -0.402932,0.24061 -0.402932,0.0374 0,-0.16334 -0.0893,-0.29698 -0.198437,-0.29698 -0.109141,0 -0.198438,0.29766 -0.198438,0.66146 0,0.3638 0.0893,0.66146 0.198438,0.66146 0.109141,0 0.198437,-0.12757 0.198437,-0.28349 0,-0.15591 0.187099,-0.0964 0.415774,0.13229 0.527735,0.52774 0.814175,0.54449 0.380773,0.0223 z m 1.981292,0.12939 c 0.08978,-0.14526 -0.02226,-0.52895 -0.248969,-0.85262 -0.318997,-0.45544 -0.412203,-0.49045 -0.412203,-0.15482 0,0.23854 0.148828,0.49409 0.330729,0.5679 0.248887,0.10099 0.232519,0.20365 -0.06615,0.41487 -0.24427,0.17275 -0.275708,0.28223 -0.08176,0.28473 0.173313,0.002 0.388569,-0.1148 0.478349,-0.26007 z m 2.126821,-0.68743 c -0.332872,-0.2434 -0.353977,-0.3503 -0.09004,-0.45605 0.222704,-0.0892 0.180835,-0.14552 -0.118268,-0.15901 -0.511733,-0.0231 -0.622833,0.37828 -0.1804,0.65171 0.155441,0.0961 0.212247,0.35807 0.126234,0.58221 -0.133184,0.34707 -0.09306,0.35498 0.270438,0.0533 0.392357,-0.32563 0.391714,-0.37991 -0.008,-0.67217 z m 1.467033,0.46292 c -0.179922,-0.33619 -0.166318,-0.58383 0.04361,-0.79375 0.230433,-0.23044 0.225369,-0.30512 -0.02069,-0.30512 -0.487441,0 -0.678718,0.74538 -0.3064,1.19399 0.450506,0.54283 0.598351,0.49322 0.28348,-0.0951 z m -16.287883,-1.0491 c -0.07589,-0.0759 -0.137976,0.0155 -0.137976,0.2031 0,0.2782 -0.07586,0.27812 -0.41149,-5.3e-4 -0.366962,-0.30455 -0.375617,-0.26277 -0.07998,0.38609 0.32836,0.72067 0.333584,0.72198 0.549466,0.1384 0.119874,-0.32405 0.155864,-0.65127 0.07998,-0.72716 z m 1.714107,0.97616 c 0,0.16333 0.11651,0.29698 0.258911,0.29698 0.155187,0 0.133985,-0.27419 -0.05292,-0.6844 -0.290562,-0.63772 -0.335294,-0.65231 -0.655786,-0.21402 -0.468093,0.64016 -0.434823,1.03862 0.05292,0.63383 0.274205,-0.22757 0.396875,-0.23758 0.396875,-0.0324 z m 5.230996,-0.36448 c 0.03011,-0.3638 -0.06298,-0.66146 -0.206876,-0.66146 -0.143891,0 -0.26162,0.29766 -0.26162,0.66146 0,0.3638 0.09309,0.66146 0.206876,0.66146 0.113781,0 0.23151,-0.29766 0.26162,-0.66146 z m 1.112001,-0.14538 c -0.250052,-0.46723 -0.361995,-0.51251 -0.546551,-0.2211 -0.127651,0.20157 -0.232093,0.48554 -0.232093,0.63106 0,0.14552 0.10067,0.10577 0.223712,-0.0883 0.177312,-0.27972 0.260078,-0.25814 0.399051,0.10402 0.09644,0.25131 0.241715,0.39055 0.32284,0.30942 0.08113,-0.0811 0.006,-0.4119 -0.166959,-0.73507 z m 0.86551,0.14538 c 0.06955,-0.3638 0.02389,-0.66146 -0.101447,-0.66146 -0.125341,0 -0.227893,0.29766 -0.227893,0.66146 0,0.3638 0.04565,0.66146 0.101447,0.66146 0.0558,0 0.158348,-0.29766 0.227893,-0.66146 z m 2.84566,0.1479 c 0,-0.28245 -0.0893,-0.56874 -0.198438,-0.63619 -0.10914,-0.0675 -0.198437,0.16365 -0.198437,0.51355 0,0.34991 0.0893,0.6362 0.198437,0.6362 0.109141,0 0.198438,-0.2311 0.198438,-0.51356 z m -8.13002,-3.19061 c 0,-0.65484 0.0516,-0.92274 0.114662,-0.59531 0.06306,0.32742 0.06306,0.8632 0,1.19062 -0.06306,0.32742 -0.114662,0.0595 -0.114662,-0.59531 z m -5.716508,0.0882 c -0.240083,-0.24008 -0.223787,-1.35058 0.02205,-1.50252 0.10914,-0.0675 0.198437,0.28271 0.198437,0.77814 0,0.49542 -0.0099,0.90077 -0.02205,0.90077 -0.01213,0 -0.101424,-0.0794 -0.198437,-0.17639 z m 2.521025,-0.48507 c 0.0054,-0.43656 0.06469,-0.58312 0.131773,-0.32569 0.06708,0.25743 0.06267,0.61462 -0.0098,0.79375 -0.07248,0.17913 -0.127363,-0.0315 -0.121971,-0.46806 z m 0.79375,0 c 0.0054,-0.43656 0.06469,-0.58312 0.131773,-0.32569 0.06708,0.25743 0.06267,0.61462 -0.0098,0.79375 -0.07248,0.17913 -0.127363,-0.0315 -0.121971,-0.46806 z m 0.677413,0 c -0.06955,-0.3638 -0.02389,-0.66145 0.101447,-0.66145 0.125341,0 0.227893,0.29765 0.227893,0.66145 0,0.36381 -0.04565,0.66146 -0.101447,0.66146 -0.0558,0 -0.158348,-0.29765 -0.227893,-0.66146 z m 1.076657,0.0461 c -0.09844,-0.48282 -0.06156,-0.65679 0.104101,-0.49113 0.141097,0.1411 0.209695,0.47755 0.152439,0.74767 -0.0771,0.36375 -0.143635,0.29722 -0.25654,-0.25654 z m 1.5875,0 c -0.09844,-0.48282 -0.06156,-0.65679 0.104101,-0.49113 0.141097,0.1411 0.209695,0.47755 0.152439,0.74767 -0.0771,0.36375 -0.143635,0.29722 -0.25654,-0.25654 z m 0.891763,-0.0461 c 0.0054,-0.43656 0.06469,-0.58312 0.131774,-0.32569 0.06708,0.25743 0.06267,0.61462 -0.0098,0.79375 -0.07248,0.17913 -0.127363,-0.0315 -0.121971,-0.46806 z m 0.814233,-0.39687 c 0,-0.65484 0.0516,-0.92274 0.114662,-0.59531 0.06306,0.32742 0.06306,0.8632 0,1.19062 -0.06306,0.32742 -0.114662,0.0595 -0.114662,-0.59531 z m 0.79375,0 c 0,-0.65484 0.0516,-0.92274 0.114662,-0.59531 0.06306,0.32742 0.06306,0.8632 0,1.19062 -0.06306,0.32742 -0.114662,0.0595 -0.114662,-0.59531 z m 0.545959,0.64367 c -0.08752,-0.22806 -0.05401,-0.51976 0.07445,-0.64823 0.135037,-0.13503 0.23357,0.0399 0.23357,0.41466 0,0.75113 -0.08475,0.8154 -0.30802,0.23357 z m 1.060153,-0.31587 c -0.0358,-0.60513 -0.0042,-0.63668 0.225855,-0.22558 0.147724,0.26397 0.166355,0.57894 0.04162,0.70353 -0.124675,0.12452 -0.244498,-0.0896 -0.267471,-0.47795 z m 1.673214,0.55414 c -0.240084,-0.24008 -0.223788,-1.35058 0.02205,-1.50252 0.10914,-0.0675 0.198437,0.28271 0.198437,0.77814 0,0.49542 -0.0099,0.90077 -0.02205,0.90077 -0.01213,0 -0.101424,-0.0794 -0.198437,-0.17639 z m 1.431999,-0.24253 c 0.0127,-0.30823 0.07539,-0.37092 0.159852,-0.15985 0.07643,0.19099 0.06703,0.41919 -0.02089,0.50712 -0.08792,0.0879 -0.150453,-0.0684 -0.138965,-0.34727 z m 0.597134,0.004 c -0.08752,-0.22806 -0.05401,-0.51977 0.07445,-0.64823 0.135037,-0.13503 0.233569,0.0399 0.233569,0.41466 0,0.75113 -0.08475,0.8154 -0.308019,0.23357 z m 1.035624,-0.27504 c 0,-0.441 0.07465,-0.56892 0.207031,-0.35473 0.113867,0.18425 0.145777,0.49461 0.07091,0.68971 -0.201982,0.52636 -0.277942,0.43481 -0.277941,-0.33498 z m 0.779184,0.0282 c 0.0054,-0.43656 0.06469,-0.58312 0.131774,-0.32569 0.06708,0.25743 0.06267,0.61462 -0.0098,0.79375 -0.07248,0.17913 -0.127363,-0.0315 -0.121971,-0.46806 z m 0.677413,0 c -0.06955,-0.3638 -0.02389,-0.66145 0.101447,-0.66145 0.125341,0 0.227893,0.29765 0.227893,0.66145 0,0.36381 -0.04565,0.66146 -0.101447,0.66146 -0.0558,0 -0.158348,-0.29765 -0.227893,-0.66146 z m 1.703837,0 c 0.0054,-0.43656 0.06469,-0.58312 0.131774,-0.32569 0.06708,0.25743 0.06267,0.61462 -0.0098,0.79375 -0.07248,0.17913 -0.127363,-0.0315 -0.121971,-0.46806 z m 1.544334,0.49234 c 0.01193,-0.32287 0.757053,-1.27042 0.892118,-1.13448 0.06174,0.0621 -0.115625,0.39406 -0.394141,0.7376 -0.278515,0.34355 -0.502605,0.52214 -0.497977,0.39688 z m -0.781276,-0.77897 c 0.01269,-0.30822 0.07539,-0.37092 0.159852,-0.15985 0.07643,0.19099 0.06703,0.4192 -0.02089,0.50712 -0.08792,0.0879 -0.150453,-0.0683 -0.138964,-0.34727 z m -1.74068,-0.11024 c -0.08994,-0.14552 -0.03743,-0.26458 0.116677,-0.26458 0.154109,0 0.280198,0.11906 0.280198,0.26458 0,0.14552 -0.0525,0.26458 -0.116677,0.26458 -0.06417,0 -0.190261,-0.11906 -0.280198,-0.26458 z m -17.806458,-1.905 C 76.845305,150.10982 76.708529,148.89 76.987998,148.89 c 0.07999,0 0.520367,0.19388 0.978621,0.43086 0.458255,0.23697 1.434608,0.64499 2.169674,0.90671 l 1.336482,0.47585 -1.997604,0.0193 c -1.22557,0.0119 -2.120311,-0.10338 -2.315104,-0.29817 z m -0.3175,-12.69504 v -2.72072 l 0.651772,0.95917 c 0.366125,0.5388 1.182013,1.21586 1.861641,1.54486 l 1.209869,0.58569 -1.001745,0.52931 c -0.55096,0.29112 -1.388698,0.82026 -1.861641,1.17586 l -0.859896,0.64655 z m 9.89e-4,-15.31111 c -7.37e-4,-7.99301 0.07997,-10.80981 0.316511,-11.04635 0.208378,-0.20838 1.315665,-0.3175 3.221742,-0.3175 h 2.904243 l -1.480645,1.44561 c -4.302474,4.20066 -4.813919,11.10795 -1.140267,15.39979 l 0.909635,1.0627 -0.880074,0.41968 c -1.142896,0.54501 -2.75348,1.96664 -3.366088,2.97117 -0.474136,0.77747 -0.484088,0.57363 -0.485057,-9.9351 z"
         id="path3820"
         inkscape:connector-curvature="0" />
      <path
         style="fill:#46617c;stroke-width:0.26458332"
         d="m 77.163054,157.57135 c -0.429445,-0.42945 -0.4093,-2.45741 0.02802,-2.82035 0.418753,-0.34753 20.491107,-0.42183 21.031853,-0.0779 0.233396,0.14846 0.319494,0.68548 0.264584,1.65025 l -0.0814,1.43017 -10.461284,0.0691 c -7.91585,0.0523 -10.539264,-0.009 -10.78177,-0.25135 z m 4.134414,-1.39403 c -0.304169,-0.66758 -0.351828,-0.6852 -0.671364,-0.24821 -0.454491,0.62156 -0.440408,1.04326 0.02202,0.65948 0.283988,-0.23569 0.403931,-0.20483 0.535395,0.13776 0.09318,0.24282 0.230605,0.38031 0.305388,0.30553 0.07478,-0.0748 -0.01136,-0.45934 -0.191441,-0.85456 z m 1.241581,0.63736 c 0.1161,-0.18786 0.298937,-0.17164 0.566266,0.0502 0.304011,0.2523 0.508736,0.2565 0.89022,0.0182 0.313951,-0.19606 0.554086,-0.21446 0.655589,-0.0502 0.0881,0.14254 0.354496,0.25916 0.592003,0.25916 0.370558,0 0.362243,-0.0509 -0.05861,-0.35861 -0.321551,-0.23513 -0.42799,-0.52135 -0.309096,-0.83118 0.153112,-0.399 0.118619,-0.4205 -0.221594,-0.13815 -0.275697,0.22881 -0.402932,0.24063 -0.402932,0.0374 0,-0.16334 -0.107916,-0.29698 -0.239813,-0.29698 -0.131897,0 -0.181056,0.22469 -0.109242,0.4993 0.155339,0.59402 -0.371595,1.00255 -0.774035,0.60011 -0.201255,-0.20126 -0.185205,-0.40135 0.05545,-0.69132 0.239876,-0.28903 0.24962,-0.40809 0.0334,-0.40809 -0.167906,0 -0.373555,0.17791 -0.456996,0.39536 -0.08344,0.21744 -0.260241,0.32827 -0.392887,0.2463 -0.132647,-0.082 -0.172675,-0.25989 -0.08895,-0.39536 0.08372,-0.13546 -0.0334,-0.2463 -0.260267,-0.2463 -0.471329,0 -0.55095,0.41236 -0.129869,0.6726 0.155441,0.0961 0.218709,0.34122 0.140595,0.54479 -0.164495,0.42866 0.255962,0.50496 0.510766,0.0927 z m 5.003337,-0.61739 c -0.21324,-0.84962 -0.47469,-0.8795 -0.851897,-0.0974 l -0.287108,0.59531 -0.01791,-0.59531 c -0.0133,-0.44223 -0.170993,-0.58994 -0.613219,-0.57442 -0.327422,0.0115 -0.446485,0.0809 -0.264584,0.15434 0.181901,0.0734 0.330729,0.36165 0.330729,0.64057 0,0.5737 0.93521,0.71868 1.137773,0.17639 0.08293,-0.22201 0.187894,-0.17477 0.319318,0.1437 0.281174,0.68136 0.452123,0.37448 0.246895,-0.44321 z m 1.603748,0.62952 c 0.109604,-0.17734 0.328311,-0.17734 0.659679,0 0.7309,0.39117 1.054008,0.3267 1.268481,-0.25308 0.142055,-0.384 0.294153,-0.45259 0.586787,-0.26458 0.350088,0.22492 0.349878,0.28343 -0.0019,0.51432 -0.2782,0.18263 -0.295496,0.26175 -0.05784,0.26459 0.472463,0.006 0.766348,-0.86221 0.340088,-1.0043 -0.273464,-0.0911 -0.269742,-0.15926 0.01855,-0.33937 0.238128,-0.14877 0.08633,-0.20531 -0.446773,-0.16641 -0.601771,0.0439 -0.803954,0.18689 -0.79375,0.56131 0.0075,0.27631 -0.135075,0.55411 -0.316899,0.61731 -0.478615,0.16639 -0.747411,-0.72884 -0.303277,-1.01006 0.203106,-0.1286 0.244268,-0.23565 0.09147,-0.23788 -0.152797,-0.002 -0.420688,0.13882 -0.595313,0.31345 -0.246944,0.24694 -0.3175,0.24694 -0.3175,0 0,-0.17463 -0.09875,-0.3175 -0.219445,-0.3175 -0.120696,0 -0.209993,0.25584 -0.198438,0.56853 0.01155,0.3127 -0.14467,0.62589 -0.347166,0.69599 -0.272788,0.0944 -0.333705,-0.0529 -0.235128,-0.56853 0.07318,-0.3828 0.0305,-0.69599 -0.09484,-0.69599 -0.125341,0 -0.227893,0.35719 -0.227893,0.79375 0,0.60932 0.119327,0.79375 0.513552,0.79375 0.282453,0 0.587335,-0.11939 0.677515,-0.2653 z m 5.393547,-0.31987 c -0.139278,-0.26024 -0.397871,-0.47499 -0.574653,-0.47722 -0.201913,-0.003 -0.173858,-0.0994 0.07545,-0.26053 0.339169,-0.21919 0.329551,-0.25707 -0.06614,-0.26053 -0.503208,-0.004 -0.62365,0.39461 -0.198438,0.65741 0.145521,0.0899 0.264583,0.28258 0.264583,0.4281 0,0.14552 -0.119062,0.191 -0.264583,0.10106 -0.145521,-0.0899 -0.264583,-0.0388 -0.264583,0.11372 0,0.15248 0.288359,0.25337 0.640798,0.2242 0.528209,-0.0437 0.596305,-0.13617 0.387566,-0.52621 z m 1.525151,0.39774 c -0.353924,-0.0912 -0.455521,-0.30218 -0.36742,-0.76305 0.133208,-0.69684 -0.257298,-0.88021 -0.504208,-0.23678 -0.193847,0.50516 0.3626,1.19702 0.930197,1.15657 0.338148,-0.0241 0.32557,-0.0578 -0.05857,-0.15674 z m -16.703039,-1.35029 c -0.07589,-0.0759 -0.137976,0.0155 -0.137976,0.2031 0,0.2782 -0.07586,0.27812 -0.41149,-5.3e-4 -0.366962,-0.30455 -0.375617,-0.26277 -0.07998,0.38609 0.32836,0.72067 0.333584,0.72198 0.549466,0.1384 0.119874,-0.32405 0.155864,-0.65127 0.07998,-0.72716 z m 3.638254,-2.43103 c 0,-0.65484 0.0516,-0.92274 0.114662,-0.59531 0.06306,0.32742 0.06306,0.8632 0,1.19062 -0.06306,0.32742 -0.114662,0.0595 -0.114662,-0.59531 z m -5.716508,0.0882 c -0.240083,-0.24008 -0.223787,-1.35058 0.02205,-1.50252 0.10914,-0.0675 0.198437,0.28271 0.198437,0.77814 0,0.49542 -0.0099,0.90077 -0.02205,0.90077 -0.01213,0 -0.101424,-0.0794 -0.198437,-0.17639 z m 2.521025,-0.48507 c 0.0054,-0.43656 0.06469,-0.58312 0.131773,-0.32569 0.06708,0.25743 0.06267,0.61462 -0.0098,0.79375 -0.07248,0.17913 -0.127363,-0.0315 -0.121971,-0.46806 z m 0.79375,0 c 0.0054,-0.43656 0.06469,-0.58312 0.131773,-0.32569 0.06708,0.25743 0.06267,0.61462 -0.0098,0.79375 -0.07248,0.17913 -0.127363,-0.0315 -0.121971,-0.46806 z m 5.042226,-0.26458 c 0.0029,-0.58208 0.05712,-0.78905 0.120406,-0.45993 0.06329,0.32911 0.06088,0.80536 -0.0053,1.05833 -0.06622,0.25296 -0.118003,-0.0163 -0.115067,-0.5984 z m 0.79909,-0.13229 c 0,-0.65484 0.0516,-0.92274 0.114662,-0.59531 0.06306,0.32742 0.06306,0.8632 0,1.19062 -0.06306,0.32742 -0.114662,0.0595 -0.114662,-0.59531 z m 0.578516,0.77615 c -0.09592,-0.15521 -0.117656,-0.33893 -0.0483,-0.40829 0.06935,-0.0694 0.196603,0.0576 0.282773,0.28219 0.178907,0.46622 0.02642,0.54823 -0.234472,0.1261 z m 2.70081,0.10579 c -0.240084,-0.24008 -0.223788,-1.35058 0.02205,-1.50252 0.10914,-0.0675 0.198437,0.28271 0.198437,0.77814 0,0.49542 -0.0099,0.90077 -0.02205,0.90077 -0.01213,0 -0.101424,-0.0794 -0.198437,-0.17639 z m 1.431999,-0.24253 c 0.0127,-0.30823 0.07539,-0.37092 0.159852,-0.15985 0.07643,0.19099 0.06703,0.41919 -0.02089,0.50712 -0.08792,0.0879 -0.150453,-0.0684 -0.138965,-0.34727 z m 0.597134,0.004 c -0.08752,-0.22806 -0.05401,-0.51977 0.07445,-0.64823 0.135037,-0.13503 0.233569,0.0399 0.233569,0.41466 0,0.75113 -0.08475,0.8154 -0.308019,0.23357 z m 2.510544,-0.20071 c -0.09844,-0.48282 -0.06156,-0.65679 0.104102,-0.49113 0.141097,0.1411 0.209695,0.47755 0.152439,0.74767 -0.0771,0.36375 -0.143635,0.29722 -0.256541,-0.25654 z m 1.67571,0.0862 c 0,-0.36381 0.06005,-0.51263 0.133452,-0.33073 0.0734,0.1819 0.0734,0.47955 0,0.66145 -0.0734,0.18191 -0.133452,0.0331 -0.133452,-0.33072 z m 1.554138,0.38129 c 0.0046,-0.13695 0.183222,-0.48012 0.396875,-0.76259 0.213654,-0.28248 0.384674,-0.40154 0.380046,-0.26459 -0.0046,0.13696 -0.183222,0.48013 -0.396875,0.7626 -0.213653,0.28248 -0.384674,0.40154 -0.380046,0.26458 z M 83.9152,152.6154 c -0.115087,-0.44009 -0.08065,-0.54339 0.115686,-0.34706 0.15375,0.15375 0.227487,0.43573 0.16386,0.62661 -0.06605,0.19816 -0.185987,0.0782 -0.279546,-0.27955 z m -5.022112,-2.06949 c -1.760504,-0.0912 -1.785938,-0.10318 -1.785938,-0.83824 V 148.962 l 1.235466,0.62547 c 0.679507,0.34401 1.423647,0.6273 1.653646,0.62952 0.229999,0.002 0.596774,0.11947 0.815055,0.26054 0.218281,0.14106 0.277812,0.23498 0.132292,0.20871 -0.145521,-0.0263 -1.068256,-0.0894 -2.050521,-0.14033 z m -1.785938,-12.6648 v -2.26085 l 0.674552,0.80166 c 0.371003,0.44091 1.085378,0.95021 1.5875,1.13178 0.502122,0.18157 0.907565,0.39551 0.900986,0.47542 -0.0066,0.0799 -0.720954,0.58798 -1.5875,1.12906 l -1.575538,0.98377 z m 0.0045,-15.91244 -0.0045,-10.64948 h 2.897818 2.897817 l -1.288338,1.28834 c -4.16254,4.16254 -4.613772,11.27408 -0.971176,15.306 l 0.951055,1.0527 -0.722234,0.32251 c -1.293149,0.57744 -2.683862,1.65598 -3.225617,2.50155 l -0.53041,0.82786 z"
         id="path3818"
         inkscape:connector-curvature="0" />
      <path
         style="fill:#154c70;stroke-width:0.26458332"
         d="m 77.10715,156.16607 v -1.45521 H 87.822775 98.5384 v 1.45521 1.45521 H 87.822775 77.10715 Z m 15.559318,0.52216 c -0.08146,-0.0815 -0.229406,0.0654 -0.328765,0.32632 -0.143586,0.37709 -0.113195,0.40748 0.148112,0.14812 0.180821,-0.17948 0.262115,-0.39297 0.180653,-0.47444 z m -13.446703,-0.0591 c -0.005,-0.56976 -0.440292,-1.2975 -0.650423,-1.08737 -0.168539,0.16854 0.291042,1.55039 0.515635,1.55039 0.07636,0 0.137017,-0.20836 0.134788,-0.46302 z m 1.902116,0.11827 c 0.431633,0.34774 2.61851,0.37385 3.039318,0.0363 0.192925,-0.15476 0.370947,-0.14322 0.478636,0.031 0.0943,0.15259 0.372794,0.27381 0.618868,0.26938 0.410423,-0.007 0.409132,-0.0303 -0.01562,-0.27773 -0.628957,-0.36633 -0.586175,-1.03714 0.06615,-1.03714 0.388055,0 0.529166,0.17639 0.529166,0.66146 0,0.71036 0.481349,0.86803 1.016434,0.33294 0.261635,-0.26163 0.379317,-0.24817 0.578032,0.0661 0.285216,0.45113 0.323951,0.13998 0.09085,-0.72982 -0.08774,-0.32742 -0.246519,-0.59531 -0.35283,-0.59531 -0.106311,0 -0.322491,0.26789 -0.480401,0.59531 -0.28433,0.58955 -0.287281,0.58985 -0.305015,0.0309 -0.02026,-0.63853 -0.914504,-0.99593 -1.58887,-0.63502 -0.24673,0.13204 -0.616157,0.12275 -0.874836,-0.022 -0.328578,-0.18389 -0.588282,-0.11006 -0.975704,0.27736 -0.294047,0.29405 -0.597749,0.415 -0.685503,0.27302 -0.08666,-0.14022 -0.02444,-0.25494 0.138256,-0.25494 0.162697,0 0.225442,-0.11386 0.139433,-0.25303 -0.217638,-0.35214 -0.933183,-0.035 -0.933183,0.41363 0,0.20271 0.119062,0.36857 0.264583,0.36857 0.145521,0 0.264584,0.11533 0.264584,0.25628 0,0.14095 -0.178594,0.18775 -0.396875,0.10398 -0.218282,-0.0838 -0.396875,-0.31112 -0.396875,-0.50524 0,-0.34833 -0.476654,-0.78948 -0.657556,-0.60858 -0.05125,0.0512 -0.172021,0.45013 -0.26838,0.88639 -0.125668,0.56896 -0.100049,0.68582 0.09062,0.41335 0.193835,-0.277 0.36084,-0.30331 0.616713,-0.0972 z m 2.070686,-0.42695 c 0,-0.325 0.170838,-0.55122 0.416275,-0.55122 0.246391,0 0.381363,0.18002 0.330729,0.4411 -0.128733,0.66378 -0.747004,0.75492 -0.747004,0.11012 z m 5.967373,0.48406 c 0.128011,-0.20713 0.258279,-0.20713 0.465406,0 0.468754,0.46876 1.242013,0.32866 1.461546,-0.26479 0.194135,-0.5248 0.223481,-0.52887 0.586786,-0.0815 0.23595,0.29055 0.255753,0.39482 0.0517,0.27223 -0.181901,-0.10929 -0.330729,-0.0726 -0.330729,0.0815 0,0.43608 0.526885,0.32942 0.708317,-0.14338 0.0894,-0.23297 -0.0036,-0.5288 -0.206742,-0.65741 -0.286402,-0.18135 -0.29155,-0.23473 -0.02294,-0.23788 0.190489,-0.002 0.266348,-0.13348 0.168574,-0.29168 -0.123107,-0.1992 -0.262407,-0.203 -0.453023,-0.0124 -0.185584,0.18559 -0.436216,0.18911 -0.769355,0.0108 -0.271756,-0.14543 -0.635957,-0.17676 -0.809335,-0.0696 -0.173379,0.10715 -0.706699,0.16846 -1.185157,0.13623 -0.805075,-0.0542 -0.869923,0.001 -0.869923,0.74345 0,0.61752 0.118148,0.80204 0.513552,0.80204 0.282453,0 0.593548,-0.12944 0.691321,-0.28764 z m -0.94029,-0.48406 c 0,-0.325 0.170839,-0.55122 0.416275,-0.55122 0.246391,0 0.381364,0.18002 0.33073,0.4411 -0.128734,0.66378 -0.747005,0.75492 -0.747005,0.11012 z m 1.705544,0.21948 c -0.272659,-0.44117 0.340574,-0.94708 0.705569,-0.58208 0.305309,0.3053 0.114226,0.86972 -0.294446,0.86972 -0.128345,0 -0.31335,-0.12944 -0.411123,-0.28764 z m 5.173623,0.31102 c 0,-0.0884 -0.242745,-0.31227 -0.539434,-0.49756 -0.296688,-0.18529 -0.468255,-0.45205 -0.38126,-0.59281 0.087,-0.14076 -0.02745,-0.25593 -0.254316,-0.25593 -0.22687,0 -0.41249,0.17859 -0.41249,0.39687 0,0.21829 0.119062,0.39688 0.264583,0.39688 0.145521,0 0.264583,0.12609 0.264583,0.2802 0,0.15411 -0.119062,0.20661 -0.264583,0.11667 -0.145521,-0.0899 -0.264583,-0.0454 -0.264583,0.099 0,0.14438 0.357187,0.25235 0.79375,0.23994 0.436562,-0.0124 0.79375,-0.0949 0.79375,-0.18324 z m 1.322916,-0.0151 c 0,-0.14096 -0.178593,-0.18775 -0.396875,-0.10399 -0.275391,0.10568 -0.396875,-0.0183 -0.396875,-0.40518 0,-0.32852 0.169408,-0.55747 0.41249,-0.55747 0.22687,0 0.338707,-0.11938 0.248527,-0.2653 -0.21472,-0.34742 -1.190183,0.15955 -1.190183,0.61857 0,0.18406 0.142875,0.47752 0.3175,0.65215 0.381305,0.3813 1.005416,0.41931 1.005416,0.0612 z m -16.801041,-1.06664 c 0.08994,-0.14552 0.03743,-0.26458 -0.116677,-0.26458 -0.154109,0 -0.280198,0.11906 -0.280198,0.26458 0,0.14552 0.0525,0.26459 0.116677,0.26459 0.06417,0 0.190261,-0.11907 0.280198,-0.26459 z m -2.411931,-2.76267 c -0.0805,-0.20978 -0.09973,-0.59673 -0.04274,-0.85989 0.06471,-0.29877 0.155271,-0.15552 0.241136,0.38142 0.144092,0.90104 0.05044,1.12691 -0.198396,0.47847 z m 9.225529,-0.54462 c 0.0029,-0.58208 0.05712,-0.78905 0.120406,-0.45993 0.06329,0.32911 0.06088,0.80536 -0.0053,1.05833 -0.06622,0.25296 -0.118003,-0.0163 -0.115067,-0.5984 z m 3.284666,0.74965 c -0.240084,-0.24008 -0.223788,-1.35058 0.02205,-1.50252 0.10914,-0.0675 0.198437,0.28271 0.198437,0.77814 0,0.49542 -0.0099,0.90077 -0.02205,0.90077 -0.01213,0 -0.101424,-0.0794 -0.198437,-0.17639 z m -5.711751,-0.50711 c 0.0127,-0.30823 0.07539,-0.37092 0.159852,-0.15986 0.07643,0.191 0.06703,0.4192 -0.02089,0.50712 -0.08792,0.0879 -0.150453,-0.0684 -0.138965,-0.34726 z m -6.900055,-2.88837 c 0,-0.3638 0.02977,-0.66091 0.06615,-0.66024 0.03638,8e-4 0.780521,0.29551 1.653646,0.65518 l 1.5875,0.65396 -1.653646,0.006 c -1.589175,0.006 -1.653646,-0.0195 -1.653646,-0.65517 z m 0,-11.90093 v -2.32564 l 0.554177,0.70452 c 0.304797,0.38749 1.035699,0.95017 1.624225,1.25042 l 1.070049,0.5459 -1.161204,0.65815 c -0.638663,0.36199 -1.369564,0.84584 -1.624226,1.07523 -0.437487,0.39407 -0.463021,0.28882 -0.463021,-1.90858 z m 0,-15.95119 v -10.64476 h 2.893162 2.893161 l -1.372747,1.38907 c -4.125651,4.17468 -4.512337,11.18189 -0.841296,15.24529 0.542966,0.601 0.834953,1.09273 0.648859,1.09273 -0.649153,0 -2.935797,1.67087 -3.576,2.61301 l -0.645139,0.94941 z"
         id="path3816"
         inkscape:connector-curvature="0" />
      <path
         style="fill:#02254b;stroke-width:0.26458332"
         d="m 77.10715,156.16607 v -1.45521 H 87.822775 98.5384 v 1.45521 1.45521 H 87.822775 77.10715 Z m 15.610417,0.80875 c 0,-0.21003 -0.246477,-0.55451 -0.547727,-0.76551 -0.392597,-0.27499 -0.448799,-0.41885 -0.198437,-0.50795 0.192109,-0.0684 0.258008,-0.22197 0.146441,-0.34133 -0.111565,-0.11936 -0.338165,-0.0817 -0.503553,0.0837 -0.20612,0.20612 -0.454407,0.21845 -0.789341,0.0392 -0.325579,-0.17425 -0.659855,-0.16988 -1.001743,0.0131 -0.341219,0.18262 -0.568037,0.18574 -0.677073,0.009 -0.09018,-0.14592 -0.395062,-0.2653 -0.677515,-0.2653 -0.379509,0 -0.518226,0.18991 -0.531459,0.7276 -0.01758,0.71452 -0.02307,0.7169 -0.305016,0.13229 -0.157909,-0.32742 -0.391813,-0.59531 -0.519785,-0.59531 -0.127973,0 -0.340356,0.26789 -0.471964,0.59531 -0.236489,0.58836 -0.239482,0.58869 -0.256057,0.0287 -0.01871,-0.63211 -1.227752,-1.10635 -1.676496,-0.65761 -0.170633,0.17063 -0.425716,0.15694 -0.740679,-0.0397 -0.382726,-0.23902 -0.591349,-0.19963 -1.026001,0.19372 -0.300074,0.27157 -0.624234,0.41511 -0.720356,0.31899 -0.09612,-0.0961 -0.02883,-0.17477 0.149529,-0.17477 0.178362,0 0.25071,-0.11906 0.160774,-0.26458 -0.245259,-0.39684 -0.657217,-0.31892 -0.840609,0.15899 -0.0894,0.23297 0.0036,0.5288 0.206742,0.65741 0.249562,0.15802 0.265079,0.23514 0.04786,0.23788 -0.176781,0.002 -0.448861,-0.23407 -0.604621,-0.52511 -0.379819,-0.7097 -0.646259,-0.66646 -1.02577,0.16648 -0.347111,0.76182 -0.155211,1.24437 0.246406,0.6196 0.18208,-0.28325 0.304615,-0.30541 0.450079,-0.0814 0.234701,0.36142 2.702703,0.39347 3.15,0.0409 0.189837,-0.14963 0.372671,-0.13614 0.478636,0.0353 0.238283,0.38555 1.811609,0.34806 2.237055,-0.0533 0.280458,-0.26458 0.374826,-0.26458 0.47184,0 0.146833,0.40045 1.564475,0.44232 1.804902,0.0533 0.110087,-0.17813 0.281416,-0.18707 0.478636,-0.025 0.168945,0.13884 0.761596,0.25178 1.317,0.25097 0.555405,-7.9e-4 1.081264,0.07 1.168576,0.15728 0.284598,0.28459 0.599723,0.16735 0.599723,-0.22313 z m -9.355804,-0.33088 c -0.316219,-0.31621 -0.170844,-0.87475 0.227679,-0.87475 0.218281,0 0.396875,0.17157 0.396875,0.38126 0,0.44203 -0.377634,0.74041 -0.624554,0.49349 z m 1.543454,-0.0925 c -0.08601,-0.13917 -0.08279,-0.37209 0.0071,-0.51761 0.244488,-0.39559 0.926041,-0.31906 0.926041,0.10398 0,0.44861 -0.715545,0.76577 -0.933183,0.41363 z m 3.579016,-0.23742 c 0,-0.29963 0.119063,-0.54478 0.264584,-0.54478 0.145521,0 0.264583,0.17157 0.264583,0.38126 0,0.20969 -0.119062,0.45485 -0.264583,0.54478 -0.145521,0.0899 -0.264584,-0.0816 -0.264584,-0.38126 z m 1.495072,0.12516 c -0.186597,-0.48627 0.309479,-0.8233 0.674512,-0.45827 0.282419,0.28242 0.07928,0.84667 -0.304808,0.84667 -0.121363,0 -0.28773,-0.17479 -0.369704,-0.3884 z m -10.563292,-0.16356 c 0.24997,-0.66225 0.242026,-0.79114 -0.04204,-0.68214 -0.19264,0.0739 -0.500022,-0.005 -0.683073,-0.17564 -0.263376,-0.24536 -0.29846,-0.17204 -0.168145,0.3514 0.09057,0.3638 0.166299,0.81029 0.168286,0.99219 0.0067,0.611 0.414004,0.33805 0.724976,-0.48581 z m 17.534887,0.48765 c 0,-0.12845 -0.264956,-0.19629 -0.58879,-0.15076 -0.391818,0.0551 -0.619591,-0.0721 -0.680859,-0.38025 -0.06605,-0.33218 0.07789,-0.46302 0.509415,-0.46302 0.447993,0 0.525,-0.0765 0.301769,-0.29971 -0.404062,-0.40406 -1.147165,-0.085 -1.317305,0.56563 -0.164701,0.62982 -0.423691,0.6688 -0.870063,0.13096 -0.26454,-0.31875 -0.260501,-0.39688 0.02052,-0.39688 0.256922,0 0.271657,-0.0782 0.05545,-0.29444 -0.161945,-0.16195 -0.423882,-0.21445 -0.582083,-0.11668 -0.361062,0.22315 -0.378645,0.94029 -0.02306,0.94029 0.145521,0 0.264583,0.12609 0.264583,0.2802 0,0.15411 -0.119062,0.20661 -0.264583,0.11667 -0.145521,-0.0899 -0.264583,-0.0515 -0.264583,0.0855 0,0.13696 0.773906,0.24159 1.719791,0.23252 0.945886,-0.009 1.719792,-0.12158 1.719792,-0.25002 z"
         id="path3814"
         inkscape:connector-curvature="0" />
    </g>
  </g>
</svg>
